Coordinates
version=1
nRows=8
nColumns=40
inDegrees=yes

Units are S.I. units (second, meters, Newtons, ...)
If the header above contains a line with 'inDegrees', this indicates whether rotational values are in degrees (yes) or radians (no).

endheader
time	pelvis_tilt	pelvis_list	pelvis_rotation	pelvis_tx	pelvis_ty	pelvis_tz	hip_flexion_r	hip_adduction_r	hip_rotation_r	knee_angle_r	knee_angle_r_beta	ankle_angle_r	subtalar_angle_r	mtp_angle_r	hip_flexion_l	hip_adduction_l	hip_rotation_l	knee_angle_l	knee_angle_l_beta	ankle_angle_l	subtalar_angle_l	mtp_angle_l	lumbar_extension	lumbar_bending	lumbar_rotation	arm_flex_r	arm_add_r	arm_rot_r	elbow_flex_r	pro_sup_r	wrist_flex_r	wrist_dev_r	arm_flex_l	arm_add_l	arm_rot_l	elbow_flex_l	pro_sup_l	wrist_flex_l	wrist_dev_l
      1.70000000	     -4.71496988	      0.91879013	      2.34682006	     -0.31878433	      0.96489317	     -0.79913027	     15.82586990	      3.32185462	    -11.44075747	     21.18651627	      0.36977447	     -5.23845873	      0.00000000	      0.00000000	     11.35356394	    -10.67822156	      1.00714376	     75.78312387	      1.32266503	     -6.67354625	      0.00000000	      0.00000000	     -6.70715651	      0.92776540	     -5.56791529	     76.14436621	    -20.77873846	     37.20107257	     69.65661511	     86.40490391	      0.00000000	      0.00000000	     82.08111342	     -9.85160626	     42.69312588	     60.60747189	     84.28094551	      0.00000000	      0.00000000
      1.70500000	     -4.84352805	      0.89017930	      2.31150802	     -0.31916455	      0.96451093	     -0.79900501	     16.11518712	      3.32571096	    -11.45272294	     21.47893526	      0.37487814	     -5.08201093	      0.00000000	      0.00000000	     11.46911941	    -10.82543390	      0.89157620	     75.72010504	      1.32156514	     -6.52044971	      0.00000000	      0.00000000	     -6.66834135	      0.98873901	     -5.49153859	     76.44821302	    -20.85928833	     37.48816969	     69.65657435	     86.59819789	      0.00000000	      0.00000000	     82.34925928	     -9.95652405	     43.10465594	     60.78057093	     81.81691882	      0.00000000	      0.00000000
      1.71000000	     -4.82912310	      0.96257356	      2.34080046	     -0.31939218	      0.96451808	     -0.79897990	     16.08895598	      3.23546531	    -11.53088843	     21.41748777	      0.37380568	     -5.17345021	      0.00000000	      0.00000000	     11.42444849	    -10.78791292	      0.92230036	     75.57553479	      1.31904192	     -6.61349106	      0.00000000	      0.00000000	     -6.75237033	      0.92625977	     -5.55221731	     76.49368855	    -20.64108458	     37.18613580	     69.50794457	     86.50124371	      0.00000000	      0.00000000	     82.47091520	     -9.92474715	     42.78478063	     60.60931555	     84.03832158	      0.00000000	      0.00000000
      1.71500000	     -4.88047454	      0.99652437	      2.34621666	     -0.31970838	      0.96439595	     -0.79893735	     16.16495566	      3.19366307	    -11.52766416	     21.40920689	      0.37366115	     -5.20289889	      0.00000000	      0.00000000	     11.44567273	    -10.80622144	      0.89385543	     75.47240235	      1.31724192	     -6.53720676	      0.00000000	      0.00000000	     -6.77493389	      0.92099820	     -5.51582672	     76.66616344	    -20.60392022	     37.17041471	     69.40671484	     86.63552153	      0.00000000	      0.00000000	     82.64965382	     -9.91925606	     42.78365235	     60.56685139	     83.52280309	      0.00000000	      0.00000000
      1.72000000	     -4.94288420	      1.02473769	      2.32431882	     -0.32001285	      0.96420479	     -0.79884567	     16.29766476	      3.15369825	    -11.48834259	     21.51572278	      0.37552020	     -5.12283746	      0.00000000	      0.00000000	     11.47414099	    -10.84081105	      0.87628419	     75.38291883	      1.31568013	     -6.44256257	      0.00000000	      0.00000000	     -6.79407256	      0.91037578	     -5.48998745	     76.81722804	    -20.53892280	     37.09904620	     69.35774556	     86.77266310	      0.00000000	      0.00000000	     82.89529036	    -10.05490413	     43.15026297	     60.74035403	     81.24276739	      0.00000000	      0.00000000
      1.72500000	     -5.01518238	      1.06051969	      2.33513020	     -0.32034161	      0.96399189	     -0.79885589	     16.48260426	      3.06268638	    -11.64821910	     21.70430951	      0.37881166	     -5.10350440	      0.00000000	      0.00000000	     11.54353462	    -10.87923908	      0.82341626	     75.30836101	      1.31437885	     -6.47770058	      0.00000000	      0.00000000	     -6.78600833	      0.90115637	     -5.46789125	     76.99459096	    -20.48488280	     37.15738195	     69.23607043	     86.45634557	      0.00000000	      0.00000000	     83.06092525	    -10.00443993	     42.95508052	     60.51061464	     84.25393540	      0.00000000	      0.00000000
      1.73000000	     -5.13526760	      1.07993828	      2.33791743	     -0.32066256	      0.96367013	     -0.79880735	     16.72347251	      2.99919553	    -11.73380723	     21.91325892	      0.38245852	     -5.02073498	      0.00000000	      0.00000000	     11.67881776	    -10.93598098	      0.79511515	     75.28975362	      1.31405409	     -6.40464393	      0.00000000	      0.00000000	     -6.73166194	      0.88963019	     -5.46009358	     77.15041898	    -20.45410966	     37.16835496	     69.20624311	     86.78948840	      0.00000000	      0.00000000	     83.31910584	    -10.13509802	     43.47012547	     60.62714018	     81.65397389	      0.00000000	      0.00000000
      1.73500000	     -5.14392109	      1.10553931	      2.30311798	     -0.32095710	      0.96354463	     -0.79872537	     16.79709371	      2.96686478	    -11.68604967	     21.99822845	      0.38394152	     -5.03395764	      0.00000000	      0.00000000	     11.66262694	    -10.95691292	      0.76552652	     75.23252508	      1.31305527	     -6.40299770	      0.00000000	      0.00000000	     -6.80785186	      0.88732289	     -5.40692498	     77.33086352	    -20.40787098	     37.19940006	     69.11257611	     86.75713522	      0.00000000	      0.00000000	     83.48553171	    -10.14672831	     43.47532935	     60.68204449	     79.08337773	      0.00000000	      0.00000000
